<svg width="152" height="126" viewBox="0 0 152 126" fill="none" xmlns="http://www.w3.org/2000/svg">
<path d="M149.666 120.75C150.957 120.75 152 121.796 152 123.075C152 124.354 150.957 125.406 149.666 125.406C148.381 125.406 147.351 124.354 147.351 123.075C147.351 121.796 148.381 120.75 149.666 120.75ZM149.666 121.21C148.648 121.21 147.847 122.016 147.847 123.075C147.847 124.133 148.648 124.946 149.666 124.946C150.216 124.946 150.703 124.708 151.034 124.323L150.443 124.322L149.756 123.377H149.511V124.322H148.89V121.79H150.026C150.664 121.79 151.138 122.136 151.138 122.583C151.138 122.936 150.844 123.226 150.419 123.333L151.097 124.245C151.341 123.928 151.485 123.523 151.485 123.075C151.485 122.016 150.683 121.21 149.666 121.21ZM149.936 122.205H149.511V122.961H149.936C150.304 122.961 150.509 122.823 150.509 122.59C150.509 122.344 150.304 122.205 149.936 122.205ZM124.18 110.208C129.259 110.208 131.586 114.142 131.586 118.443C131.586 118.637 131.577 118.85 131.563 119.07L131.553 119.237L131.529 119.575H120.945C121.371 121.528 122.733 122.547 124.662 122.547C126.069 122.547 127.101 122.119 128.252 121.081L128.351 120.991L130.82 123.17C129.401 124.925 127.358 126 124.606 126C120.083 126 116.729 122.866 116.662 118.299L116.661 118.16L116.662 117.974C116.723 113.703 119.798 110.208 124.18 110.208ZM107.102 110.208C112.181 110.208 114.508 114.142 114.508 118.443C114.508 118.637 114.499 118.85 114.485 119.07L114.475 119.237L114.451 119.575H103.868C104.293 121.528 105.655 122.547 107.585 122.547C108.992 122.547 110.023 122.119 111.174 121.081L111.273 120.991L113.742 123.17C112.323 124.925 110.28 126 107.528 126C103.005 126 99.6507 122.866 99.5841 118.299L99.583 118.16L99.584 117.974C99.645 113.703 102.72 110.208 107.102 110.208ZM34.7303 110.208C39.3933 110.208 42.8605 113.619 42.9294 117.917L42.9305 118.047L42.9294 118.234C42.86 122.533 39.3646 126 34.6735 126C30.0105 126 26.5432 122.588 26.4743 118.291L26.4733 118.16L26.4744 117.973C26.5438 113.675 30.0391 110.208 34.7303 110.208ZM10.3567 105.509C14.0436 105.509 16.2732 106.716 18.1012 108.482L18.188 108.566L15.4073 111.764C13.8751 110.377 12.3145 109.528 10.3283 109.528C7.01392 109.528 4.6171 112.246 4.56901 115.595L4.56828 115.698L4.56898 115.856C4.61548 119.207 6.9574 121.981 10.3283 121.981C12.4564 121.981 13.8113 121.185 15.2583 119.92L15.3549 119.835L15.5492 119.66L18.3299 122.462C16.2869 124.642 14.017 126 10.1864 126C4.39973 126 0.0869768 121.59 0.00130028 115.982L0 115.811L0.00127359 115.586C0.0853067 110.031 4.31716 105.509 10.3567 105.509ZM139.215 110.264C141.144 110.264 143.244 110.915 144.89 112.019L143.244 114.991C141.74 114.113 140.236 113.575 139.13 113.575C138.08 113.575 137.541 114.028 137.541 114.623V114.679C137.541 115.528 138.988 115.925 140.634 116.491L140.881 116.574L141.133 116.661C143.101 117.357 145.171 118.402 145.229 120.883L145.23 121.047C145.23 124.415 142.705 125.943 139.414 125.943C137.286 125.943 134.902 125.236 132.887 123.651L134.732 120.821C136.378 122.009 138.108 122.632 139.527 122.632C140.776 122.632 141.343 122.179 141.343 121.5V121.443C141.343 120.527 139.922 120.21 138.286 119.717L137.876 119.594L137.71 119.542C135.743 118.915 133.709 117.882 133.655 115.24L133.654 115.075C133.654 111.991 136.151 110.264 139.215 110.264ZM77.0507 105V125.66H72.7378V123.481C71.6879 124.896 70.2408 125.943 67.9992 125.943C64.4879 125.943 61.1434 123.225 61.0769 118.255L61.0759 118.104L61.0769 117.896C61.1423 112.926 64.4317 110.208 67.9992 110.208C70.165 110.208 71.5496 111.137 72.5569 112.263L72.6181 112.332L72.7378 112.472V105H77.0507ZM49.3041 110.491V118.953C49.3041 120.991 50.2688 122.038 51.9145 122.038C53.5328 122.038 54.5749 121.025 54.6092 119.054L54.6101 118.953V110.491H58.923V125.66H54.6101V123.509C53.617 124.783 52.3401 125.943 50.1553 125.943C46.9273 125.943 45.0322 123.838 44.9918 120.423L44.9911 120.311V110.491H49.3041ZM90.0528 105.849C92.3228 105.849 94.1103 106.472 95.2453 107.604C96.1249 108.481 96.5785 109.544 96.606 110.845L96.6073 110.972L96.6061 111.147C96.5647 113.308 95.3902 114.524 93.9968 115.302L94.2033 115.383C96.3458 116.247 97.672 117.549 97.7129 120.05L97.7139 120.17L97.713 120.335C97.6553 123.85 94.7766 125.625 90.4125 125.66L80.8311 125.66V105.849H90.0528ZM24.5119 105V125.66H20.199V105H24.5119ZM69.1058 113.858C67.1185 113.858 65.4348 115.456 65.3897 117.944L65.3888 118.047L65.3897 118.205C65.4348 120.667 67.1185 122.292 69.1058 122.292C71.0932 122.292 72.7492 120.667 72.7936 118.205L72.7945 118.104V118.047C72.7945 115.528 71.1204 113.858 69.1058 113.858ZM34.6735 113.915C32.2379 113.915 30.769 115.761 30.7303 117.958L30.7295 118.047L30.7303 118.192C30.7722 120.391 32.3782 122.292 34.7303 122.292C37.1659 122.292 38.6348 120.446 38.6735 118.25L38.6743 118.16L38.6735 118.016C38.6316 115.817 37.0256 113.915 34.6735 113.915ZM90.1379 117.481H85.0873V121.84H90.2798C92.176 121.84 93.3323 121.184 93.3716 119.764L93.3726 119.689L93.3718 119.566C93.3392 118.275 92.3421 117.481 90.1379 117.481ZM124.18 113.66C122.423 113.66 121.269 114.891 120.907 116.788L120.889 116.887H127.386C127.131 114.962 125.996 113.66 124.18 113.66ZM107.102 113.66C105.345 113.66 104.191 114.891 103.829 116.788L103.811 116.887H110.309C110.053 114.962 108.918 113.66 107.102 113.66ZM89.4002 109.67H85.0873V113.858H89.1164C91.0132 113.858 92.2244 113.257 92.265 111.838L92.266 111.764V111.708C92.266 110.406 91.2445 109.67 89.4002 109.67Z" fill="black"/>
<path fill-rule="evenodd" clip-rule="evenodd" d="M85.4489 36.8939V49.838H97.6968C104.452 49.838 109.927 55.2584 109.927 61.9503C109.927 68.6417 104.437 74.0651 97.6823 74.0651C90.9274 74.0651 85.446 68.5845 85.446 61.8931L85.4489 24.8588C85.4489 19.3114 83.5652 13.7144 80.18 9.42162C78.8993 7.91845 79.3242 7.95093 77.8013 9.22116C77.7645 9.25188 77.7291 9.28413 77.695 9.31784L70.6451 16.3015C69.4612 17.4743 69.5809 17.053 70.4066 18.3648C71.7053 20.4279 72.3547 22.5925 72.3547 24.8588V61.9503C72.3547 75.7945 83.7067 87 97.6823 87C111.658 87 123 75.7945 123 61.9503C123 48.106 111.658 36.8939 97.6823 36.8939C88.3652 36.8939 84.2874 36.8939 85.4489 36.8939Z" fill="black"/>
<path fill-rule="evenodd" clip-rule="evenodd" d="M60.1846 12.9799C62.8804 12.9799 65.2374 13.6808 67.2557 15.0825L76.4621 5.90397C71.8817 1.96799 66.4558 0 60.1846 0C46.2977 0 35 11.2706 35 25.1237C35 38.9763 46.2977 50.2465 60.1846 50.2465H69.0922V37.2666H60.1846C53.4722 37.2666 48.0112 31.8189 48.0112 25.1237C48.0112 18.4272 53.4722 12.9799 60.1846 12.9799Z" fill="black"/>
</svg>
